<?xml version="1.0" encoding="UTF-8" standalone="no"?>
<!DOCTYPE svg PUBLIC "-//W3C//DTD SVG 1.1//EN" "http://www.w3.org/Graphics/SVG/1.1/DTD/svg11.dtd">
<!-- Created with Vectornator (http://vectornator.io/) -->
<svg height="100%" stroke-miterlimit="10" style="fill-rule:nonzero;clip-rule:evenodd;stroke-linecap:round;stroke-linejoin:round;" version="1.1" viewBox="0 0 481.99 475.821" width="100%" xml:space="preserve" xmlns="http://www.w3.org/2000/svg" xmlns:vectornator="http://vectornator.io" xmlns:xlink="http://www.w3.org/1999/xlink">
<defs/>
<g id="Untitled" vectornator:layerName="Untitled">
<g opacity="1">
<path d="M240.995 0.392439C152.183 0.392439 80.169 72.408 80.169 161.218C80.169 250.029 240.995 475.821 240.995 475.821C240.995 475.821 401.821 249.977 401.821 161.218C401.821 72.4601 329.857 0.392439 240.995 0.392439ZM240.995 271.754C179.26 271.754 129.185 221.782 129.185 160.312C129.185 98.8429 179.261 48.8703 240.995 48.8703C302.729 48.8703 352.857 98.7339 352.857 160.312C352.857 221.886 302.781 271.754 240.995 271.754Z" fill="#ffffff" fill-rule="nonzero" opacity="1" stroke="none"/>
<path d="M260.605 150.413C272.159 139.602 272.792 121.429 261.981 109.875C251.17 98.3208 232.997 97.6874 221.443 108.498C209.889 119.309 209.256 137.482 220.066 149.036C220.492 149.514 220.965 149.935 221.443 150.413C199.187 156.294 183.342 176.01 182.334 199.004C182.334 201.97 182.703 204.994 183.29 207.908C184.189 212.36 188.111 215.592 192.667 215.592L289.692 215.592C294.196 215.488 298.01 212.252 298.805 207.856C299.439 204.942 299.76 201.975 299.76 198.952C298.701 175.953 282.855 156.346 260.651 150.465C260.651 150.465 260.605 150.413 260.605 150.413Z" fill="#ffffff" fill-rule="nonzero" opacity="1" stroke="none"/>
</g>
</g>
</svg>
