<svg width="30" height="29" viewBox="0 0 30 29" fill="none" xmlns="http://www.w3.org/2000/svg">
<path d="M15.0552 7.60596C11.0552 7.60596 7.86768 10.856 7.86768 14.7935C7.86768 18.7935 11.0552 21.981 15.0552 21.981C18.9927 21.981 22.2427 18.7935 22.2427 14.7935C22.2427 10.856 18.9927 7.60596 15.0552 7.60596ZM15.0552 19.481C12.4927 19.481 10.3677 17.4185 10.3677 14.7935C10.3677 12.231 12.4302 10.1685 15.0552 10.1685C17.6177 10.1685 19.6802 12.231 19.6802 14.7935C19.6802 17.4185 17.6177 19.481 15.0552 19.481ZM24.1802 7.35596C24.1802 6.41846 23.4302 5.66846 22.4927 5.66846C21.5552 5.66846 20.8052 6.41846 20.8052 7.35596C20.8052 8.29346 21.5552 9.04346 22.4927 9.04346C23.4302 9.04346 24.1802 8.29346 24.1802 7.35596ZM28.9302 9.04346C28.8052 6.79346 28.3052 4.79346 26.6802 3.16846C25.0552 1.54346 23.0552 1.04346 20.8052 0.918457C18.4927 0.793457 11.5552 0.793457 9.24268 0.918457C6.99268 1.04346 5.05518 1.54346 3.36768 3.16846C1.74268 4.79346 1.24268 6.79346 1.11768 9.04346C0.992676 11.356 0.992676 18.2935 1.11768 20.606C1.24268 22.856 1.74268 24.7935 3.36768 26.481C5.05518 28.106 6.99268 28.606 9.24268 28.731C11.5552 28.856 18.4927 28.856 20.8052 28.731C23.0552 28.606 25.0552 28.106 26.6802 26.481C28.3052 24.7935 28.8052 22.856 28.9302 20.606C29.0552 18.2935 29.0552 11.356 28.9302 9.04346ZM25.9302 23.0435C25.4927 24.2935 24.4927 25.231 23.3052 25.731C21.4302 26.481 17.0552 26.2935 15.0552 26.2935C12.9927 26.2935 8.61768 26.481 6.80518 25.731C5.55518 25.231 4.61768 24.2935 4.11768 23.0435C3.36768 21.231 3.55518 16.856 3.55518 14.7935C3.55518 12.7935 3.36768 8.41846 4.11768 6.54346C4.61768 5.35596 5.55518 4.41846 6.80518 3.91846C8.61768 3.16846 12.9927 3.35596 15.0552 3.35596C17.0552 3.35596 21.4302 3.16846 23.3052 3.91846C24.4927 4.35596 25.4302 5.35596 25.9302 6.54346C26.6802 8.41846 26.4927 12.7935 26.4927 14.7935C26.4927 16.856 26.6802 21.231 25.9302 23.0435Z" fill="#5A5A5A"/>
</svg>
