<svg width="33" height="27" viewBox="0 0 33 27" fill="none" xmlns="http://www.w3.org/2000/svg">
<path d="M29.436 7.29346C30.686 6.35596 31.811 5.23096 32.686 3.91846C31.561 4.41846 30.2485 4.79346 28.936 4.91846C30.311 4.10596 31.311 2.85596 31.811 1.29346C30.561 2.04346 29.1235 2.60596 27.686 2.91846C26.436 1.60596 24.7485 0.855957 22.8735 0.855957C19.2485 0.855957 16.311 3.79346 16.311 7.41846C16.311 7.91846 16.3735 8.41846 16.4985 8.91846C11.061 8.60596 6.18604 5.98096 2.93604 2.04346C2.37354 2.98096 2.06104 4.10596 2.06104 5.35596C2.06104 7.60596 3.18604 9.60596 4.99854 10.7935C3.93604 10.731 2.87354 10.481 1.99854 9.98096V10.0435C1.99854 13.231 4.24854 15.856 7.24854 16.481C6.74854 16.606 6.12354 16.731 5.56104 16.731C5.12354 16.731 4.74854 16.6685 4.31104 16.606C5.12354 19.231 7.56104 21.106 10.436 21.1685C8.18604 22.9185 5.37354 23.981 2.31104 23.981C1.74854 23.981 1.24854 23.9185 0.748535 23.856C3.62354 25.731 7.06104 26.7935 10.811 26.7935C22.8735 26.7935 29.436 16.856 29.436 8.16846C29.436 7.85596 29.436 7.60596 29.436 7.29346Z" fill="#5A5A5A"/>
</svg>
